<?xml version="1.0"?>
<svg xmlns="http://www.w3.org/2000/svg" xmlns:xlink="http://www.w3.org/1999/xlink" id="Gradient" viewBox="0 0 512 512" width="512" height="512"><defs><linearGradient id="linear-gradient" x1="256" y1="496" x2="256" y2="16" gradientUnits="userSpaceOnUse"><stop offset="0" stop-color="#12c2e9"/><stop offset="0.5" stop-color="#c471ed"/><stop offset="1" stop-color="#f64f59"/></linearGradient></defs><path d="M472,416.805V408a72.1,72.1,0,0,0-64-71.545V328a40.067,40.067,0,0,0-32-39.195V280h24a8,8,0,0,0,8-8V248h17.376a24,24,0,1,0,0-16H408V208a8,8,0,0,0-8-8H376V184a24.027,24.027,0,0,0-24-24H160a24.027,24.027,0,0,0-24,24v16H112a8,8,0,0,0-8,8v24H86.624a24,24,0,1,0,0,16H104v24a8,8,0,0,0,8,8h24v8.805A40.067,40.067,0,0,0,104,328v8.455A72.1,72.1,0,0,0,40,408v8.805A40.067,40.067,0,0,0,8,456v32a8,8,0,0,0,8,8H48a8,8,0,0,0,8-8V472a8,8,0,1,1,16,0v16a8,8,0,0,0,8,8h32a8,8,0,0,0,8-8v-.022A39.788,39.788,0,0,0,144,496H368a39.788,39.788,0,0,0,24-8.022V488a8,8,0,0,0,8,8h32a8,8,0,0,0,8-8V472a8,8,0,0,1,16,0v16a8,8,0,0,0,8,8h32a8,8,0,0,0,8-8V456A40.067,40.067,0,0,0,472,416.805ZM448,232a8,8,0,1,1-8,8A8.009,8.009,0,0,1,448,232ZM64,248a8,8,0,1,1,8-8A8.009,8.009,0,0,1,64,248ZM456,408v8H440v-8a40.067,40.067,0,0,0-32-39.195V352.581A56.078,56.078,0,0,1,456,408Zm-48-22.624A24.038,24.038,0,0,1,424,408v8.805a39.835,39.835,0,0,0-16,7.217ZM392,216v48H376V216ZM160,176H352a8.009,8.009,0,0,1,8,8V288H328V264a8,8,0,0,0-8-8H192a8,8,0,0,0-8,8v24H152V184A8.009,8.009,0,0,1,160,176ZM312,288H200V272H312ZM120,264V216h16v48ZM104,424.022a39.835,39.835,0,0,0-16-7.217V408a24.038,24.038,0,0,1,16-22.624Zm0-71.441v16.224A40.067,40.067,0,0,0,72,408v8H56v-8A56.078,56.078,0,0,1,104,352.581ZM104,480H88v-8a24,24,0,0,0-48,0v8H24V456a24.027,24.027,0,0,1,24-24H80a24.027,24.027,0,0,1,24,24Zm264,0H144a24.027,24.027,0,0,1-24-24V328a24.027,24.027,0,0,1,24-24H368a24.027,24.027,0,0,1,24,24V456A24.027,24.027,0,0,1,368,480Zm120,0H472v-8a24,24,0,1,0-48,0v8H408V456a24.027,24.027,0,0,1,24-24h32a24.027,24.027,0,0,1,24,24ZM208,240a24,24,0,1,0-24-24A24.027,24.027,0,0,0,208,240Zm0-32a8,8,0,1,1-8,8A8.009,8.009,0,0,1,208,208Zm96,32a24,24,0,1,0-24-24A24.027,24.027,0,0,0,304,240Zm0-32a8,8,0,1,1-8,8A8.009,8.009,0,0,1,304,208ZM256,368a24,24,0,1,0,24,24A24.027,24.027,0,0,0,256,368Zm0,32a8,8,0,1,1,8-8A8.009,8.009,0,0,1,256,400Zm72-256a8.007,8.007,0,0,0,2.97-.572L369.541,128H440a24.027,24.027,0,0,0,24-24V40a24.027,24.027,0,0,0-24-24H360a24.027,24.027,0,0,0-24,24V86.7L320.411,133.47A8,8,0,0,0,328,144ZM352,40a8.009,8.009,0,0,1,8-8h80a8.009,8.009,0,0,1,8,8v64a8.009,8.009,0,0,1-8,8H368a8,8,0,0,0-2.971.572l-23.985,9.594L351.589,90.53A8,8,0,0,0,352,88Zm24,8h48a8,8,0,0,1,0,16H376a8,8,0,0,1,0-16Zm56,40a8,8,0,0,1-8,8H376a8,8,0,0,1,0-16h48A8,8,0,0,1,432,88Z" style="fill:url(#linear-gradient)"/></svg>
